<svg width="28" height="28" viewBox="0 0 28 28" fill="none" xmlns="http://www.w3.org/2000/svg">
<path d="M4.49976 25V10.75C4.49976 9.0924 5.15824 7.50268 6.33034 6.33058C7.50244 5.15848 9.09215 4.5 10.7498 4.5H21.2498C22.0705 4.5 22.8832 4.66166 23.6415 4.97575C24.3998 5.28984 25.0888 5.75022 25.6692 6.33058C26.2495 6.91095 26.7099 7.59994 27.024 8.35823C27.3381 9.11651 27.4998 9.92924 27.4998 10.75V21.25C27.4998 22.0708 27.3381 22.8835 27.024 23.6418C26.7099 24.4001 26.2495 25.0891 25.6692 25.6694C25.0888 26.2498 24.3998 26.7102 23.6415 27.0242C22.8832 27.3383 22.0705 27.5 21.2498 27.5H6.99976C6.33671 27.5 5.70083 27.2366 5.23199 26.7678C4.76315 26.2989 4.49976 25.663 4.49976 25Z" stroke="white" stroke-linecap="round" stroke-linejoin="round"/>
<mask id="path-2-inside-1_503_3130" fill="white">
<path d="M9.99951 16H15.2495C16.0452 16 16.8082 16.3161 17.3708 16.8787C17.9334 17.4413 18.2495 18.2043 18.2495 19C18.2495 19.7956 17.9334 20.5587 17.3708 21.1213C16.8082 21.6839 16.0452 22 15.2495 22H9.99951V11.5C9.99951 11.1022 10.1575 10.7206 10.4389 10.4393C10.7202 10.158 11.1017 10 11.4995 10H13.7495C14.5452 10 15.3082 10.3161 15.8708 10.8787C16.4334 11.4413 16.7495 12.2044 16.7495 13C16.7495 13.7956 16.4334 14.5587 15.8708 15.1213C15.3082 15.6839 14.5452 16 13.7495 16H11.4995M21.9995 22H22.0145Z"/>
</mask>
<path d="M9.99951 15C9.44723 15 8.99951 15.4477 8.99951 16C8.99951 16.5523 9.44723 17 9.99951 17V15ZM9.99951 22H8.99951C8.99951 22.5523 9.44723 23 9.99951 23V22ZM9.99951 11.5L10.9995 11.5L9.99951 11.5ZM11.4995 10V11V10ZM11.4995 15C10.9472 15 10.4995 15.4477 10.4995 16C10.4995 16.5523 10.9472 17 11.4995 17V15ZM21.9995 21C21.4472 21 20.9995 21.4477 20.9995 22C20.9995 22.5523 21.4472 23 21.9995 23V21ZM22.0145 23C22.5668 23 23.0145 22.5523 23.0145 22C23.0145 21.4477 22.5668 21 22.0145 21V23ZM9.99951 17H15.2495V15H9.99951V17ZM15.2495 17C15.7799 17 16.2887 17.2107 16.6637 17.5858L18.0779 16.1716C17.3278 15.4214 16.3104 15 15.2495 15V17ZM16.6637 17.5858C17.0388 17.9609 17.2495 18.4696 17.2495 19H19.2495C19.2495 17.9391 18.8281 16.9217 18.0779 16.1716L16.6637 17.5858ZM17.2495 19C17.2495 19.5304 17.0388 20.0391 16.6637 20.4142L18.0779 21.8284C18.8281 21.0783 19.2495 20.0609 19.2495 19H17.2495ZM16.6637 20.4142C16.2887 20.7893 15.7799 21 15.2495 21V23C16.3104 23 17.3278 22.5786 18.0779 21.8284L16.6637 20.4142ZM15.2495 21H9.99951V23H15.2495V21ZM10.9995 22V11.5H8.99951V22H10.9995ZM10.9995 11.5C10.9995 11.3674 11.0522 11.2402 11.146 11.1464L9.73175 9.73223C9.2629 10.2011 8.99951 10.837 8.99951 11.5L10.9995 11.5ZM11.146 11.1464C11.2397 11.0527 11.3669 11 11.4995 11L11.4995 9C10.8365 9 10.2006 9.26339 9.73175 9.73223L11.146 11.1464ZM11.4995 11H13.7495V9H11.4995V11ZM13.7495 11C14.2799 11 14.7887 11.2107 15.1637 11.5858L16.5779 10.1716C15.8278 9.42143 14.8104 9 13.7495 9V11ZM15.1637 11.5858C15.5388 11.9609 15.7495 12.4696 15.7495 13H17.7495C17.7495 11.9391 17.3281 10.9217 16.5779 10.1716L15.1637 11.5858ZM15.7495 13C15.7495 13.5304 15.5388 14.0391 15.1637 14.4142L16.5779 15.8284C17.3281 15.0783 17.7495 14.0609 17.7495 13H15.7495ZM15.1637 14.4142C14.7887 14.7893 14.2799 15 13.7495 15V17C14.8104 17 15.8278 16.5786 16.5779 15.8284L15.1637 14.4142ZM13.7495 15H11.4995V17H13.7495V15ZM21.9995 23H22.0145V21H21.9995V23Z" fill="white" mask="url(#path-2-inside-1_503_3130)"/>
</svg>
