<svg width="24" height="25" viewBox="0 0 24 25" fill="none" xmlns="http://www.w3.org/2000/svg">
<path d="M4.42105 11.6883L11.3684 0.888306L18.3158 11.6883H4.42105ZM18.3158 24.8883C16.7368 24.8883 15.3945 24.3635 14.2888 23.3139C13.184 22.2635 12.6316 20.9883 12.6316 19.4883C12.6316 17.9883 13.184 16.7131 14.2888 15.6627C15.3945 14.6131 16.7368 14.0883 18.3158 14.0883C19.8947 14.0883 21.2371 14.6131 22.3427 15.6627C23.4476 16.7131 24 17.9883 24 19.4883C24 20.9883 23.4476 22.2635 22.3427 23.3139C21.2371 24.3635 19.8947 24.8883 18.3158 24.8883ZM0 24.2883V14.6883H10.1053V24.2883H0ZM18.3158 22.4883C19.2 22.4883 19.9474 22.1983 20.5579 21.6183C21.1684 21.0383 21.4737 20.3283 21.4737 19.4883C21.4737 18.6483 21.1684 17.9383 20.5579 17.3583C19.9474 16.7783 19.2 16.4883 18.3158 16.4883C17.4316 16.4883 16.6842 16.7783 16.0737 17.3583C15.4632 17.9383 15.1579 18.6483 15.1579 19.4883C15.1579 20.3283 15.4632 21.0383 16.0737 21.6183C16.6842 22.1983 17.4316 22.4883 18.3158 22.4883ZM2.52632 21.8883H7.57895V17.0883H2.52632V21.8883ZM8.90526 9.28831H13.8316L11.3684 5.50831L8.90526 9.28831Z" fill="#E5E5E5"/>
</svg>
