<svg width="36" height="32" viewBox="0 0 36 32" fill="none" xmlns="http://www.w3.org/2000/svg">
<rect x="0.5" y="0.5" width="35" height="31" rx="5.5" fill="#F8F7F7"/>
<mask id="mask0_503_3182" style="mask-type:alpha" maskUnits="userSpaceOnUse" x="6" y="4" width="24" height="24">
<rect x="6" y="4" width="24" height="24" fill="#D9D9D9"/>
</mask>
<g mask="url(#mask0_503_3182)">
<path d="M17 25L13.825 22.15C12.625 21.0667 11.596 20.1 10.738 19.25C9.87933 18.4 9.171 17.6 8.613 16.85C8.05433 16.1 7.646 15.375 7.388 14.675C7.12933 13.975 7 13.2417 7 12.475C7 10.9083 7.525 9.604 8.575 8.562C9.625 7.52067 10.9333 7 12.5 7C13.3667 7 14.1917 7.18333 14.975 7.55C15.7583 7.91667 16.4333 8.43333 17 9.1C17.5667 8.43333 18.2417 7.91667 19.025 7.55C19.8083 7.18333 20.6333 7 21.5 7C22.85 7 23.9833 7.379 24.9 8.137C25.8167 8.89567 26.4417 9.85 26.775 11H24.65C24.35 10.3333 23.9083 9.83333 23.325 9.5C22.7417 9.16667 22.1333 9 21.5 9C20.65 9 19.9167 9.22933 19.3 9.688C18.6833 10.146 18.1083 10.75 17.575 11.5H16.425C15.9083 10.75 15.321 10.146 14.663 9.688C14.0043 9.22933 13.2833 9 12.5 9C11.55 9 10.729 9.329 10.037 9.987C9.34567 10.6457 9 11.475 9 12.475C9 13.025 9.11667 13.5833 9.35 14.15C9.58333 14.7167 10 15.371 10.6 16.113C11.2 16.8543 12.0167 17.7207 13.05 18.712C14.0833 19.704 15.4 20.9 17 22.3C17.4333 21.9167 17.9417 21.475 18.525 20.975C19.1083 20.475 19.575 20.0583 19.925 19.725L20.15 19.95L20.637 20.438L21.125 20.925L21.35 21.15C20.9833 21.4833 20.5167 21.8957 19.95 22.387C19.3833 22.879 18.8833 23.3167 18.45 23.7L17 25ZM24 21V18H21V16H24V13H26V16H29V18H26V21H24Z" fill="#DB5461"/>
</g>
<rect x="0.5" y="0.5" width="35" height="31" rx="5.5" stroke="#DB5461"/>
</svg>
