<svg width="147" height="147" viewBox="0 0 147 147" fill="none" xmlns="http://www.w3.org/2000/svg">
<circle cx="73.1443" cy="73.1443" r="73.1443" fill="#929292" fill-opacity="0.46"/>
<path d="M73.1438 44.8618C76.3123 44.8618 79.3511 46.3517 81.5916 49.0037C83.832 51.6557 85.0907 55.2526 85.0907 59.0031C85.0907 62.7535 83.832 66.3504 81.5916 69.0024C79.3511 71.6544 76.3123 73.1443 73.1438 73.1443C69.9753 73.1443 66.9366 71.6544 64.6961 69.0024C62.4556 66.3504 61.1969 62.7535 61.1969 59.0031C61.1969 55.2526 62.4556 51.6557 64.6961 49.0037C66.9366 46.3517 69.9753 44.8618 73.1438 44.8618ZM73.1438 80.2149C86.3451 80.2149 97.0376 86.5431 97.0376 94.3561V101.427H49.25V94.3561C49.25 86.5431 59.9425 80.2149 73.1438 80.2149Z" fill="white"/>
</svg>
