<svg width="25" height="24" viewBox="0 0 25 24" fill="none" xmlns="http://www.w3.org/2000/svg">
<path d="M9.375 16.375L18.125 10.75L9.375 5.125V16.375ZM7.5 23.25V20.75H2.5C1.8125 20.75 1.22417 20.5054 0.735 20.0163C0.245 19.5263 0 18.9375 0 18.25V3.25C0 2.5625 0.245 1.97375 0.735 1.48375C1.22417 0.994583 1.8125 0.75 2.5 0.75H22.5C23.1875 0.75 23.7763 0.994583 24.2663 1.48375C24.7554 1.97375 25 2.5625 25 3.25V18.25C25 18.9375 24.7554 19.5263 24.2663 20.0163C23.7763 20.5054 23.1875 20.75 22.5 20.75H17.5V23.25H7.5ZM2.5 18.25H22.5V3.25H2.5V18.25Z" fill="#F8F7F7"/>
</svg>
