<svg width="14" height="15" viewBox="0 0 14 15" fill="none" xmlns="http://www.w3.org/2000/svg">
<path d="M5.05556 11L10.5 7.5L5.05556 4V11ZM1.55556 14.5C1.12778 14.5 0.761444 14.3478 0.456555 14.0434C0.152185 13.7386 0 13.3722 0 12.9444V2.05556C0 1.62778 0.152185 1.26144 0.456555 0.956555C0.761444 0.652185 1.12778 0.5 1.55556 0.5H12.4444C12.8722 0.5 13.2386 0.652185 13.5434 0.956555C13.8478 1.26144 14 1.62778 14 2.05556V12.9444C14 13.3722 13.8478 13.7386 13.5434 14.0434C13.2386 14.3478 12.8722 14.5 12.4444 14.5H1.55556ZM1.55556 12.9444H12.4444V2.05556H1.55556V12.9444Z" fill="#DB5461"/>
</svg>
